<?xml version="1.0" encoding="UTF-8"?>
<svg width="108px" height="39px" viewBox="0 0 108 39" version="1.1" xmlns="http://www.w3.org/2000/svg" xmlns:xlink="http://www.w3.org/1999/xlink">
    <defs>
        <polygon id="path-1" points="0 0.662990253 40.6667211 0.662990253 40.6667211 38.3765662 0 38.3765662"></polygon>
    </defs>
    <g id="designskiss-almi-startsida-2018-01-04" stroke="none" stroke-width="1" fill="none" fill-rule="evenodd" transform="translate(-50.000000, -28.000000)">
        <g id="Group-2" transform="translate(50.000000, 28.000000)">
            <g id="Almi_Logo_svart_RGB">
                <g id="Almi_Logo_svart_CMYK-C_U">
                    <path d="M103.545069,9.0438928 C105.967532,9.0438928 107.969111,7.02321381 107.969111,4.52595052 C107.969111,2.08153429 105.967532,0.0608552971 103.545069,0.0608552971 C101.121653,0.0608552971 99.120074,2.08153429 99.120074,4.52595052 C99.120074,7.02321381 101.121653,9.0438928 103.545069,9.0438928" id="Fill-1" fill="#1A1919"></path>
                    <polygon id="Fill-2" fill="#1A1919" points="99.9237528 38.3778485 107.170194 38.3778485 107.170194 11.7237186 99.9237528 11.7237186"></polygon>
                    <g id="Group-6" transform="translate(0.000000, 0.404842)">
                        <mask id="mask-2" fill="white">
                            <use xlink:href="#path-1"></use>
                        </mask>
                        <g id="Clip-4"></g>
                        <polygon id="Fill-3" fill="#1A1919" mask="url(#mask-2)" points="33.4202803 37.973007 40.6667211 37.973007 40.6667211 0.662990253 33.4202803 0.662990253"></polygon>
                        <path d="M18.604594,29.6231732 C17.3371811,30.9011109 15.5946072,31.6890124 13.6615882,31.6890124 C11.7380914,31.6890124 9.99551763,30.9011109 8.72905688,29.6231732 C7.4721184,28.3461963 6.69129298,26.5878309 6.69129298,24.645942 C6.69129298,22.6954055 7.4721184,20.93704 8.72905688,19.6687108 C9.99551763,18.3907731 11.7380914,17.6028716 13.6615882,17.6028716 C15.5946072,17.6028716 17.3371811,18.3907731 18.604594,19.6687108 C19.8605803,20.93704 20.6414057,22.6954055 20.6414057,24.645942 C20.6414057,26.5878309 19.8605803,28.3461963 18.604594,29.6231732 Z M20.6414057,11.3006208 L20.6414057,12.7601602 C18.5845973,11.4918311 16.2516433,10.8576665 13.6615882,10.8576665 C9.89077276,10.8576665 6.67224845,12.2028641 4.00601531,14.8942202 C1.3302599,17.5836545 -0.00285667837,20.8323068 -0.00285667837,24.645942 C-0.00285667837,28.4509296 1.3302599,31.6986209 4.00601531,34.3986247 C6.67224845,37.08902 9.89077276,38.4351784 13.6615882,38.4351784 C16.2516433,38.4351784 18.5845973,37.8010138 20.6414057,36.5317238 L20.6414057,37.9441813 L27.3355554,37.9441813 L27.3355554,11.3006208 L20.6414057,11.3006208 Z" id="Fill-5" fill="#1A1919" mask="url(#mask-2)"></path>
                    </g>
                    <path d="M94.7436427,25.0507836 L94.7436427,38.3778485 L88.0590153,38.3778485 L88.0590153,25.0507836 C88.0590153,23.100247 87.2781899,21.3418816 86.0117292,20.0735524 C84.7452684,18.7956147 83.0026946,18.0077132 81.0791978,18.0077132 C79.1557011,18.0077132 77.4045572,18.7956147 76.1466665,20.0735524 C74.8802058,21.3418816 74.0993803,23.100247 74.0993803,25.0507836 L74.0993803,38.3778485 L67.4147529,38.3778485 L67.4147529,25.0507836 C67.4147529,23.100247 66.6339275,21.3418816 65.3674668,20.0735524 C64.1114805,18.7956147 62.3584322,18.0077132 60.4349354,18.0077132 C58.5114387,18.0077132 56.7593426,18.7956147 55.5024041,20.0735524 C54.2359434,21.3418816 53.455118,23.100247 53.455118,25.0507836 L53.455118,38.3778485 L46.7704906,38.3778485 L46.7704906,11.7237186 L53.455118,11.7237186 L53.455118,13.1650018 C55.5214486,11.8966726 57.8544027,11.262508 60.4349354,11.262508 C64.2057509,11.262508 67.4337975,12.6077056 70.1000306,15.2990617 C70.3285649,15.5287062 70.5475769,15.76892 70.7570666,16.0091339 C70.9665564,15.76892 71.1855684,15.5287062 71.4141027,15.2990617 C74.0803358,12.6077056 77.3083824,11.262508 81.0791978,11.262508 C84.8500133,11.262508 88.0780598,12.6077056 90.744293,15.2990617 C93.4105261,17.9884961 94.7436427,21.2371483 94.7436427,25.0507836" id="Fill-7" fill="#1A1919"></path>
                </g>
            </g>
        </g>
    </g>
</svg>